<svg width="75" height="75" viewBox="0 0 75 75" fill="none" xmlns="http://www.w3.org/2000/svg">
<g clip-path="url(#clip0_203_11942)">
<circle cx="37.5" cy="37.5" r="36.75" stroke="#0071FF" stroke-width="1.5"/>
</g>
<path d="M38.2548 40.09C37.9973 40.0533 37.6663 40.0533 37.3721 40.09C30.899 39.8694 25.75 34.5732 25.75 28.0634C25.75 21.4065 31.1197 16 37.8134 16C44.4703 16 49.8768 21.4065 49.8768 28.0634C49.84 34.5732 44.7278 39.8694 38.2548 40.09Z" fill="#770DD5" fill-opacity="0.5" stroke="#0071FF" stroke-width="1.5" stroke-linecap="round" stroke-linejoin="round"/>
<path d="M62.5777 64.5993C56.0311 70.5942 47.3513 74.2353 37.7888 74.2353C28.2264 74.2353 19.5466 70.5942 13 64.5993C13.3678 61.1421 15.5745 57.7584 19.5098 55.1104C29.5872 48.4167 46.064 48.4167 56.0678 55.1104C60.0032 57.7584 62.2099 61.1421 62.5777 64.5993Z" fill="#770DD5" fill-opacity="0.5" stroke="#0071FF" stroke-width="1.5" stroke-linecap="round" stroke-linejoin="round"/>
<rect x="53.1" y="24.1" width="14.8" height="1.3" fill="#1BD2F8" stroke="#0071FF" stroke-width="0.2"/>
<rect x="53.1" y="28.1" width="14.8" height="0.8" fill="#1BD2F8" stroke="#0071FF" stroke-width="0.2"/>
<rect x="53.1" y="32.1" width="14.8" height="1.3" fill="#1BD2F8" stroke="#0071FF" stroke-width="0.2"/>
<defs>
<clipPath id="clip0_203_11942">
<rect width="75" height="75" fill="white"/>
</clipPath>
</defs>
</svg>
